P2
# iteration.pgm
17 17
255
0 0 0 0 0 0 0 0 0 0 0 0 0 0 0 0 0 
0 0 0 0 0 255 0 0 0 0 0 255 0 0 0 0 0 
0 0 0 0 0 255 0 0 0 0 0 255 0 0 0 0 0 
0 0 0 0 0 255 255 0 0 0 255 255 0 0 0 0 0 
0 0 0 0 0 0 0 0 0 0 0 0 0 0 0 0 0 
0 255 255 255 0 0 255 255 0 255 255 0 0 255 255 255 0 
0 0 0 255 0 255 0 255 0 255 0 255 0 255 0 0 0 
0 0 0 0 0 255 255 0 0 0 255 255 0 0 0 0 0 
0 0 0 0 0 0 0 0 0 0 0 0 0 0 0 0 0 
0 0 0 0 0 255 255 0 0 0 255 255 0 0 0 0 0 
0 0 0 255 0 255 0 255 0 255 0 255 0 255 0 0 0 
0 255 255 255 0 0 255 255 0 255 255 0 0 255 255 255 0 
0 0 0 0 0 0 0 0 0 0 0 0 0 0 0 0 0 
0 0 0 0 0 255 255 0 0 0 255 255 0 0 0 0 0 
0 0 0 0 0 255 0 0 0 0 0 255 0 0 0 0 0 
0 0 0 0 0 255 0 0 0 0 0 255 0 0 0 0 0 
0 0 0 0 0 0 0 0 0 0 0 0 0 0 0 0 0 
